<svg width="16" height="16" viewBox="0 0 24 24" fill="none" xmlns="http://www.w3.org/2000/svg">
    <path d="M16 6.92154L20.5569 2.30718L18.2278 0L13.6709 4.51405L16 6.92154Z" fill="#ffffff"/>
    <path
            d="M11.7468 21.1661C11.9211 20.9934 12.0848 20.8136 12.2376 20.6275C12.3404 20.7434 12.4469 20.8559 12.557 20.965C13.8734 22.269 15.6962 23.0715 17.7215 23.0715C19.038 23.0715 20.2532 22.6703 21.3671 22.0684C22.3797 21.4665 23.3924 20.5637 24 19.4603L20.962 17.755C20.557 18.3569 20.1519 18.8584 19.5443 19.1594C18.9367 19.4603 18.3291 19.6609 17.6203 19.6609C16.5063 19.6609 15.595 19.2597 14.8861 18.5575C14.1772 17.8553 13.7722 16.8522 13.7722 15.849C13.7722 14.7456 14.1772 13.8428 14.8861 13.1406C15.595 12.4384 16.6076 12.0372 17.6203 12.0372C18.3291 12.0372 18.9367 12.2378 19.5443 12.5387C20.1519 12.8397 20.6582 13.3412 20.962 13.9431L24 12.2378C23.3924 11.1344 22.481 10.2316 21.3671 9.62969C20.2532 8.92751 19.038 8.62657 17.7215 8.62657C15.6962 8.62657 13.8734 9.42907 12.557 10.7331C12.2843 11.0032 12.0334 11.2948 11.8069 11.6053C10.8121 10.6811 9.49754 10.0347 7.99996 9.63016L6.88604 9.22891L6.82815 9.2146C6.03313 9.0183 5.16453 8.80383 5.16453 7.82454C5.16453 7.52361 5.26579 7.22267 5.46832 6.92173C5.67086 6.6208 6.07592 6.52048 6.37971 6.52048H11.1392V3.10987H6.37971C5.16453 3.10987 3.94935 3.61143 2.83543 4.51424C1.92404 5.41705 1.41771 6.52049 1.41771 7.82454C1.41771 8.92798 1.82278 9.9311 2.43037 10.7336C3.33427 11.9275 4.33778 12.2333 5.63848 12.6297L5.67086 12.6395L7.18983 13.0408C8.91134 13.5423 10.1265 14.4451 10.1265 16.3511C10.1265 17.1536 9.72147 18.0564 9.11387 18.6583C8.50628 19.3604 7.69616 19.6614 6.78477 19.6614C5.97465 19.6614 5.06326 19.2601 4.45567 18.6583C3.74682 18.0564 3.44302 17.2539 3.44302 16.3511V16.2508H0V16.3511C0 18.1567 0.708857 19.862 2.02531 21.1661C3.34175 22.4701 5.06326 23.1723 6.88604 23.1723C8.70881 23.1723 10.4303 22.4701 11.7468 21.1661Z" fill="#ffffff"/>
</svg>